<svg width="32" height="32" viewBox="0 0 32 32" fill="none" xmlns="http://www.w3.org/2000/svg">
  <!-- Background gradient -->
  <defs>
    <linearGradient id="bgGradient" x1="0%" y1="0%" x2="100%" y2="100%">
      <stop offset="0%" style="stop-color:#3B82F6;stop-opacity:1" />
      <stop offset="50%" style="stop-color:#2563EB;stop-opacity:1" />
      <stop offset="100%" style="stop-color:#4338CA;stop-opacity:1" />
    </linearGradient>
    <linearGradient id="iconGradient" x1="0%" y1="0%" x2="100%" y2="100%">
      <stop offset="0%" style="stop-color:#FFFFFF;stop-opacity:1" />
      <stop offset="100%" style="stop-color:#F1F5F9;stop-opacity:1" />
    </linearGradient>
  </defs>
  
  <!-- Background rounded rectangle -->
  <rect width="32" height="32" rx="8" fill="url(#bgGradient)"/>
  
  <!-- Handshake icon -->
  <g transform="translate(6, 6)">
    <!-- Left hand -->
    <path d="M8 14c0-1.1.9-2 2-2h2l1.5-3H12c-1.1 0-2-.9-2-2s.9-2 2-2 2 .9 2 2h2c1.1 0 2 .9 2 2s-.9 2-2 2h-1.5L16 14h2c1.1 0 2 .9 2 2s-.9 2-2 2H8c-1.1 0-2-.9-2-2s.9-2 2-2z" fill="url(#iconGradient)" opacity="0.9"/>
    
    <!-- Right hand -->
    <path d="M12 18c1.1 0 2-.9 2-2h2l1.5 3H16c1.1 0 2 .9 2 2s-.9 2-2 2-2-.9-2-2h-2c-1.1 0-2-.9-2-2s.9-2 2-2h1.5L12 16h-2c-1.1 0-2-.9-2-2s.9-2 2-2h10c1.1 0 2 .9 2 2s-.9 2-2 2z" fill="url(#iconGradient)" opacity="0.7"/>
    
    <!-- Simplified handshake -->
    <circle cx="10" cy="10" r="2" fill="#FBBF24"/>
    <path d="M6 8h8v4H6z" fill="url(#iconGradient)" rx="1"/>
    <path d="M7 9h6v2H7z" fill="#FBBF24" opacity="0.8"/>
  </g>
  
  <!-- Accent dot -->
  <circle cx="24" cy="8" r="2" fill="#FBBF24"/>
</svg>
